<mxfile host="Electron" agent="Mozilla/5.0 (Windows NT 10.0; Win64; x64) AppleWebKit/537.36 (KHTML, like Gecko) draw.io/26.0.4 Chrome/128.0.6613.186 Electron/32.2.5 Safari/537.36" version="26.0.4">
  <diagram name="Page-1" id="e7e014a7-5840-1c2e-5031-d8a46d1fe8dd">
    <mxGraphModel dx="1014" dy="757" grid="1" gridSize="10" guides="1" tooltips="1" connect="1" arrows="1" fold="1" page="1" pageScale="1" pageWidth="1169" pageHeight="826" background="none" math="0" shadow="0">
      <root>
        <mxCell id="0" />
        <mxCell id="1" parent="0" />
        <mxCell id="2" value="Reporting System" style="swimlane;whiteSpace=wrap" parent="1" vertex="1">
          <mxGeometry x="140" y="128" width="300" height="822" as="geometry" />
        </mxCell>
        <mxCell id="5" value="" style="ellipse;shape=startState;fillColor=#000000;strokeColor=#ff0000;" parent="2" vertex="1">
          <mxGeometry x="120" y="40" width="30" height="30" as="geometry" />
        </mxCell>
        <mxCell id="6" value="" style="edgeStyle=elbowEdgeStyle;elbow=horizontal;verticalAlign=bottom;endArrow=open;endSize=8;strokeColor=#FF0000;endFill=1;rounded=0" parent="2" source="5" edge="1">
          <mxGeometry x="100" y="40" as="geometry">
            <mxPoint x="134.84482758620697" y="110" as="targetPoint" />
          </mxGeometry>
        </mxCell>
        <mxCell id="7" value="relevante&#xa;Leistungskennzuahlen&#xa;definieren" style="fillColor=#fff2cc;strokeColor=#FF6666;rounded=1;" parent="2" vertex="1">
          <mxGeometry x="60" y="110" width="150" height="60" as="geometry" />
        </mxCell>
        <mxCell id="8" value="Art, Dauer &amp;&#xa;Umfang&#xa;auswerten" style="fillColor=#fff2cc;strokeColor=#FF6666;rounded=1;" parent="2" vertex="1">
          <mxGeometry x="10" y="442" width="100" height="68" as="geometry" />
        </mxCell>
        <mxCell id="tgZfnZype0-rp71jd3mm-73" value="" style="edgeStyle=orthogonalEdgeStyle;rounded=0;orthogonalLoop=1;jettySize=auto;html=1;endArrow=open;endFill=0;fillColor=#e51400;strokeColor=#B20000;" parent="2" source="10" target="tgZfnZype0-rp71jd3mm-56" edge="1">
          <mxGeometry relative="1" as="geometry" />
        </mxCell>
        <mxCell id="10" value="Auswertungen&#xa;visualisieren" style="fillColor=#fff2cc;strokeColor=#FF6666;rounded=1;" parent="2" vertex="1">
          <mxGeometry x="58.75" y="652" width="152.5" height="68" as="geometry" />
        </mxCell>
        <mxCell id="11" value="" style="endArrow=open;strokeColor=#FF0000;endFill=1;rounded=0;entryX=0.134;entryY=0.52;entryDx=0;entryDy=0;entryPerimeter=0;" parent="2" source="8" target="tgZfnZype0-rp71jd3mm-67" edge="1">
          <mxGeometry relative="1" as="geometry" />
        </mxCell>
        <mxCell id="tgZfnZype0-rp71jd3mm-61" value="" style="edgeStyle=orthogonalEdgeStyle;rounded=0;orthogonalLoop=1;jettySize=auto;html=1;fillColor=#e51400;strokeColor=#B20000;endArrow=open;endFill=0;" parent="2" source="tgZfnZype0-rp71jd3mm-48" target="tgZfnZype0-rp71jd3mm-57" edge="1">
          <mxGeometry relative="1" as="geometry">
            <Array as="points">
              <mxPoint x="133" y="336" />
              <mxPoint x="133" y="336" />
            </Array>
          </mxGeometry>
        </mxCell>
        <mxCell id="tgZfnZype0-rp71jd3mm-48" value="Daten aus Buchung&#xa;importieren" style="fillColor=#fff2cc;strokeColor=#FF6666;rounded=1;" parent="2" vertex="1">
          <mxGeometry x="70" y="260" width="125" height="50" as="geometry" />
        </mxCell>
        <mxCell id="tgZfnZype0-rp71jd3mm-56" value="" style="ellipse;html=1;shape=endState;fillColor=#000000;strokeColor=#ff0000;" parent="2" vertex="1">
          <mxGeometry x="120" y="772" width="30" height="30" as="geometry" />
        </mxCell>
        <mxCell id="tgZfnZype0-rp71jd3mm-57" value="" style="shape=line;html=1;strokeWidth=6;strokeColor=#ff0000;" parent="2" vertex="1">
          <mxGeometry x="10" y="362" width="250" height="10" as="geometry" />
        </mxCell>
        <mxCell id="tgZfnZype0-rp71jd3mm-64" value="" style="edgeStyle=orthogonalEdgeStyle;html=1;verticalAlign=bottom;endArrow=open;endSize=8;strokeColor=#ff0000;rounded=0;" parent="2" edge="1">
          <mxGeometry relative="1" as="geometry">
            <mxPoint x="60.5" y="442" as="targetPoint" />
            <mxPoint x="60" y="372" as="sourcePoint" />
          </mxGeometry>
        </mxCell>
        <mxCell id="tgZfnZype0-rp71jd3mm-65" value="" style="edgeStyle=orthogonalEdgeStyle;html=1;verticalAlign=bottom;endArrow=open;endSize=8;strokeColor=#ff0000;rounded=0;" parent="2" edge="1">
          <mxGeometry relative="1" as="geometry">
            <mxPoint x="225.5" y="442" as="targetPoint" />
            <mxPoint x="226" y="372" as="sourcePoint" />
          </mxGeometry>
        </mxCell>
        <mxCell id="tgZfnZype0-rp71jd3mm-66" value="finanzielle Leistungs-&#xa;kennziffer&#xa;ermitteln" style="fillColor=#fff2cc;strokeColor=#FF6666;rounded=1;" parent="2" vertex="1">
          <mxGeometry x="160" y="442" width="120" height="68" as="geometry" />
        </mxCell>
        <mxCell id="tgZfnZype0-rp71jd3mm-67" value="" style="shape=line;html=1;strokeWidth=6;strokeColor=#ff0000;" parent="2" vertex="1">
          <mxGeometry x="35" y="572" width="200" height="10" as="geometry" />
        </mxCell>
        <mxCell id="tgZfnZype0-rp71jd3mm-68" value="" style="edgeStyle=orthogonalEdgeStyle;html=1;verticalAlign=bottom;endArrow=open;endSize=8;strokeColor=#ff0000;rounded=0;entryX=0.5;entryY=0;entryDx=0;entryDy=0;" parent="2" source="tgZfnZype0-rp71jd3mm-67" target="10" edge="1">
          <mxGeometry relative="1" as="geometry">
            <mxPoint x="135" y="652" as="targetPoint" />
          </mxGeometry>
        </mxCell>
        <mxCell id="tgZfnZype0-rp71jd3mm-70" value="" style="endArrow=open;strokeColor=#FF0000;endFill=1;rounded=0;entryX=0.134;entryY=0.52;entryDx=0;entryDy=0;entryPerimeter=0;" parent="2" edge="1">
          <mxGeometry relative="1" as="geometry">
            <mxPoint x="219.8" y="510" as="sourcePoint" />
            <mxPoint x="220.8" y="577" as="targetPoint" />
          </mxGeometry>
        </mxCell>
        <mxCell id="tgZfnZype0-rp71jd3mm-42" value="Buchungssystem" style="swimlane;whiteSpace=wrap" parent="1" vertex="1">
          <mxGeometry x="445" y="128" width="280" height="822" as="geometry" />
        </mxCell>
        <mxCell id="tgZfnZype0-rp71jd3mm-46" value="relevante Daten&#xa;exportieren" style="rounded=1;fillColor=#fff2cc;strokeColor=#FF6666;" parent="tgZfnZype0-rp71jd3mm-42" vertex="1">
          <mxGeometry x="95" y="182" width="110" height="50" as="geometry" />
        </mxCell>
        <mxCell id="tgZfnZype0-rp71jd3mm-52" value="" style="endArrow=open;html=1;rounded=0;exitX=0.5;exitY=1;exitDx=0;exitDy=0;entryX=-0.006;entryY=0.592;entryDx=0;entryDy=0;entryPerimeter=0;fillColor=#e51400;strokeColor=#B20000;endFill=0;" parent="1" source="7" target="tgZfnZype0-rp71jd3mm-46" edge="1">
          <mxGeometry width="50" height="50" relative="1" as="geometry">
            <mxPoint x="490" y="390" as="sourcePoint" />
            <mxPoint x="540" y="340" as="targetPoint" />
            <Array as="points">
              <mxPoint x="275" y="340" />
            </Array>
          </mxGeometry>
        </mxCell>
        <mxCell id="tgZfnZype0-rp71jd3mm-55" style="edgeStyle=orthogonalEdgeStyle;rounded=0;orthogonalLoop=1;jettySize=auto;html=1;entryX=1;entryY=0.5;entryDx=0;entryDy=0;fillColor=#e51400;strokeColor=#B20000;endArrow=open;endFill=0;" parent="1" source="tgZfnZype0-rp71jd3mm-46" target="tgZfnZype0-rp71jd3mm-48" edge="1">
          <mxGeometry relative="1" as="geometry">
            <Array as="points">
              <mxPoint x="595" y="413" />
            </Array>
          </mxGeometry>
        </mxCell>
      </root>
    </mxGraphModel>
  </diagram>
</mxfile>
